<svg width="54" height="55" viewBox="0 0 54 55" fill="none" xmlns="http://www.w3.org/2000/svg">
<g id="ICONS -62">
<path id="Vector" d="M38.5342 43.395V12.4379C38.5342 10.3324 36.8273 8.62549 34.7218 8.62549L19.2843 8.62549C17.1787 8.62549 15.4719 10.3324 15.4719 12.4379L15.4719 43.395C15.4719 45.5005 17.1787 47.2074 19.2843 47.2074H34.7218C36.8273 47.2074 38.5342 45.5005 38.5342 43.395Z" fill="#E3DFF2" stroke="#7F5BC2" stroke-width="2.02417" stroke-linecap="round" stroke-linejoin="round"/>
<path id="Vector_2" d="M27.0025 12.8234C27.561 12.8234 28.0138 12.3706 28.0138 11.8121C28.0138 11.2536 27.561 10.8008 27.0025 10.8008C26.444 10.8008 25.9912 11.2536 25.9912 11.8121C25.9912 12.3706 26.444 12.8234 27.0025 12.8234Z" fill="#7F5BC2"/>
<path id="Vector_3" d="M45.4516 40.2483C45.3998 40.2051 45.3479 40.164 45.296 40.1208C45.0951 39.9112 44.8963 39.7016 44.6953 39.4941C44.7385 39.5028 44.7969 39.4985 44.8228 39.5266C45.0259 39.721 45.2247 39.9198 45.4192 40.123C45.4451 40.151 45.4408 40.2072 45.4495 40.2504L45.4516 40.2483Z" fill="#010101"/>
<path id="Vector_4" d="M27.0023 35.0057L33.4758 26.3721L31.0847 23.9637H23.0754L20.5244 26.3721L27.0023 35.0057Z" fill="#E3DFF2" stroke="#7F5BC2" stroke-width="2.02417" stroke-linecap="round" stroke-linejoin="round"/>
</g>
</svg>
