<svg width="54" height="54" viewBox="0 0 54 54" fill="none" xmlns="http://www.w3.org/2000/svg">
<g id="ICONS -58">
<g id="Group 1293305">
<path id="Vector" d="M41.3321 42.9472C38.5845 39.312 33.5172 36.8755 27.7197 36.8755C21.9223 36.8755 16.8571 39.3141 14.1074 42.9472H41.3321Z" fill="#E3DFF2" stroke="#7F5BC2" stroke-width="2.02417" stroke-linecap="round" stroke-linejoin="round"/>
<path id="Vector_2" d="M13.1133 22.6282C13.1133 21.0622 13.3595 19.5523 13.8131 18.1375C15.7118 12.2537 21.2284 7.99634 27.7473 7.99634C35.83 7.99634 42.3813 14.5455 42.3813 22.6303C42.3813 27.5919 39.9146 31.9745 36.141 34.6205" stroke="#7F5BC2" stroke-width="2.02417" stroke-linecap="round" stroke-linejoin="round"/>
<path id="Vector_3" d="M37.9259 22.6283C37.9259 28.2508 33.3705 32.8062 27.748 32.8062C23.4496 32.8062 19.7733 30.143 18.2829 26.3759C17.825 25.2182 17.5723 23.9524 17.5723 22.6305C17.5723 21.5418 17.7429 20.4921 18.0604 19.5071C19.3802 15.4161 23.2185 12.4547 27.7502 12.4547C33.3727 12.4547 37.9281 17.0102 37.9281 22.6326L37.9259 22.6283Z" fill="#E3DFF2" stroke="#7F5BC2" stroke-width="2.02417" stroke-linecap="round" stroke-linejoin="round"/>
<path id="Vector_4" d="M35.891 36.8754C37.0135 36.8754 37.9235 35.9654 37.9235 34.8429C37.9235 33.7203 37.0135 32.8103 35.891 32.8103C34.7684 32.8103 33.8584 33.7203 33.8584 34.8429C33.8584 35.9654 34.7684 36.8754 35.891 36.8754Z" fill="#E3DFF2" stroke="#7F5BC2" stroke-width="2.02417" stroke-linecap="round" stroke-linejoin="round"/>
<path id="Vector_5" d="M13.9085 19.6992H17.5718V27.0237H13.9085C11.8867 27.0237 10.2451 25.3821 10.2451 23.3604C10.2451 21.3386 11.8867 19.697 13.9085 19.697V19.6992Z" fill="#E3DFF2" stroke="#7F5BC2" stroke-width="2.02417" stroke-linecap="round" stroke-linejoin="round"/>
<path id="Vector_6" d="M41.3308 27.0237H37.6674V19.6992H41.3308C43.3525 19.6992 44.9941 21.3408 44.9941 23.3625C44.9941 25.3843 43.3525 27.0259 41.3308 27.0259V27.0237Z" fill="#E3DFF2" stroke="#7F5BC2" stroke-width="2.02417" stroke-linecap="round" stroke-linejoin="round"/>
</g>
</g>
</svg>
