<svg width="54" height="55" viewBox="0 0 54 55" fill="none" xmlns="http://www.w3.org/2000/svg">
<g id="ICONS 55">
<g id="Axonometric_Cube">
<path id="Cube_face_-_top" d="M38.8366 25.3656L30.0605 20.2982L38.8366 15.233L47.6127 20.2982L38.8366 25.3656Z" fill="#E3DFF2" stroke="#7F5BC2" stroke-width="1.85929" stroke-linecap="round" stroke-linejoin="round"/>
<path id="Cube_face_-_left" d="M38.8366 34.8135L30.0605 29.7483V20.2983L38.8366 25.3657V34.8135Z" fill="#E3DFF2" stroke="#7F5BC2" stroke-width="1.85929" stroke-linecap="round" stroke-linejoin="round"/>
<path id="Cube_face_-_right" d="M47.612 29.7483L38.8359 34.8135V25.3657L47.612 20.2983V29.7483Z" fill="#E3DFF2" stroke="#7F5BC2" stroke-width="1.85929" stroke-linecap="round" stroke-linejoin="round"/>
</g>
<g id="Axonometric_Cube-2">
<path id="Cube_face_-_top-2" d="M14.7341 25.3656L5.95801 20.2982L14.7341 15.233L23.5102 20.2982L14.7341 25.3656Z" fill="#E3DFF2" stroke="#7F5BC2" stroke-width="1.85929" stroke-linecap="round" stroke-linejoin="round"/>
<path id="Cube_face_-_left-2" d="M14.7341 34.8135L5.95801 29.7483V20.2983L14.7341 25.3657V34.8135Z" fill="#E3DFF2" stroke="#7F5BC2" stroke-width="1.85929" stroke-linecap="round" stroke-linejoin="round"/>
<path id="Cube_face_-_right-2" d="M23.5085 29.7483L14.7324 34.8135V25.3657L23.5085 20.2983V29.7483Z" fill="#E3DFF2" stroke="#7F5BC2" stroke-width="1.85929" stroke-linecap="round" stroke-linejoin="round"/>
</g>
<g id="Axonometric_Cube-3">
<path id="Cube_face_-_top-3" d="M26.7839 35.1569L18.0078 30.0895L26.7839 25.0243L35.56 30.0895L26.7839 35.1569Z" fill="#E3DFF2" stroke="#7F5BC2" stroke-width="1.85929" stroke-linecap="round" stroke-linejoin="round"/>
<path id="Cube_face_-_left-3" d="M26.7839 44.6047L18.0078 39.5373V30.0895L26.7839 35.1568V44.6047Z" fill="#E3DFF2" stroke="#7F5BC2" stroke-width="1.85929" stroke-linecap="round" stroke-linejoin="round"/>
<path id="Cube_face_-_right-3" d="M35.5593 39.5373L26.7832 44.6047V35.1568L35.5593 30.0895V39.5373Z" fill="#E3DFF2" stroke="#7F5BC2" stroke-width="1.85929" stroke-linecap="round" stroke-linejoin="round"/>
</g>
</g>
</svg>
