<svg width="54" height="55" viewBox="0 0 54 55" fill="none" xmlns="http://www.w3.org/2000/svg">
<g id="ICONS -61">
<g id="Vector">
<path d="M20.7937 22.3049L23.2561 20.3566L23.1092 20.2227L14.8321 20.5942L12.8945 32.8975L21.9341 42.5571C22.5735 43.1921 23.593 43.2353 24.2842 42.6543L24.3188 42.6262C25.1158 41.9566 25.1871 40.7664 24.4786 40.0126C23.0919 38.5395 21.6512 36.9735 21.4762 36.7834L26.8201 42.205C27.6301 43.0279 28.9455 43.0668 29.8009 42.2914L29.8441 42.2525C30.8117 41.3777 30.8333 39.8765 29.8981 38.9844C27.8158 36.9972 25.7249 34.3707 25.5975 34.2087L31.7189 40.9327C32.5505 41.7514 33.8876 41.7449 34.7127 40.9219C35.1836 40.4511 35.419 39.8333 35.419 39.2199C35.419 38.5611 35.1512 37.9044 34.6198 37.4271L34.0193 36.8331C34.8596 37.3385 35.9612 37.2219 36.674 36.4983C37.0908 36.0771 37.3004 35.5263 37.3004 34.9755C37.3004 34.6407 37.2248 34.308 37.0693 34.0013C36.972 33.8069 36.8425 33.6233 36.6826 33.4591L29.2328 25.843L27.5069 24.2575L27.4983 24.2489L25.1007 24.4368" fill="#E3DFF2"/>
<path d="M20.7937 22.3049L23.2561 20.3566L23.1092 20.2227L14.8321 20.5942L12.8945 32.8975L21.9341 42.5571C22.5735 43.1921 23.593 43.2353 24.2842 42.6543L24.3188 42.6262C25.1158 41.9566 25.1871 40.7664 24.4786 40.0126C23.0919 38.5395 21.6512 36.9735 21.4762 36.7834L26.8201 42.205C27.6301 43.0279 28.9455 43.0668 29.8009 42.2914L29.8441 42.2525C30.8117 41.3777 30.8333 39.8765 29.8981 38.9844C27.8158 36.9972 25.7249 34.3707 25.5975 34.2087L31.7189 40.9327C32.5505 41.7514 33.8876 41.7449 34.7127 40.9219C35.1836 40.4511 35.419 39.8333 35.419 39.2199C35.419 38.5611 35.1512 37.9044 34.6198 37.4271L34.0193 36.8331C34.8596 37.3385 35.9612 37.2219 36.674 36.4983C37.0908 36.0771 37.3004 35.5263 37.3004 34.9755C37.3004 34.6407 37.2248 34.308 37.0692 34.0013C36.972 33.8069 36.8425 33.6233 36.6826 33.4591L29.2328 25.843L27.5069 24.2575L27.4983 24.2489L25.1007 24.4368" stroke="#7F5BC2" stroke-width="1.78987" stroke-linecap="round" stroke-linejoin="round"/>
</g>
<path id="Vector_2" d="M13.462 17.0102L12.0068 16.7811C10.9556 16.6155 9.96932 17.3334 9.80377 18.3846L7.76974 31.2999C7.6042 32.351 8.32212 33.3373 9.37326 33.5029L10.8284 33.7321C11.8796 33.8976 12.8659 33.1797 13.0314 32.1285L15.0655 19.2133C15.231 18.1621 14.5131 17.1758 13.462 17.0102Z" fill="#E3DFF2" stroke="#7F5BC2" stroke-width="1.78987" stroke-linecap="round" stroke-linejoin="round"/>
<path id="Vector_3" d="M41.9446 17.0129L40.4901 17.2469C39.4396 17.416 38.7249 18.4046 38.8939 19.4552L40.9708 32.3637C41.1398 33.4143 42.1285 34.1289 43.1791 33.9599L44.6335 33.7259C45.6841 33.5569 46.3988 32.5682 46.2297 31.5176L44.1529 18.6091C43.9838 17.5585 42.9952 16.8439 41.9446 17.0129Z" fill="#E3DFF2" stroke="#7F5BC2" stroke-width="1.78987" stroke-linecap="round" stroke-linejoin="round"/>
<path id="Vector_4" d="M37.0682 34.0013L27.5059 24.2576L29.2317 25.843L36.6815 33.4592C36.8414 33.6233 36.971 33.8069 37.0682 34.0013Z" fill="#E3DFF2" stroke="#7F5BC2" stroke-width="1.78987" stroke-linecap="round" stroke-linejoin="round"/>
<path id="Vector_5" d="M40.6725 32.5562L37.0718 34.0034C36.9746 33.8068 36.845 33.6232 36.6851 33.4591L29.2353 25.8429L27.5095 24.2575L27.5008 24.2488L24.3256 24.6981V28.0202C24.3256 30.3055 23.2327 31.9125 20.9474 31.9125C20.2065 31.9125 19.6017 31.3077 19.6017 30.5668V24.8061C19.593 23.8427 20.025 22.9118 20.7983 22.3027L23.2607 20.3543L25.4963 18.5853C26.5461 17.7537 27.9825 17.5939 29.1899 18.1749L33.8642 20.4191C34.4603 20.7064 35.1278 20.8058 35.7801 20.7086L39.0136 20.2226L40.6768 32.5562H40.6725Z" fill="#E3DFF2" stroke="#7F5BC2" stroke-width="1.78987" stroke-linecap="round" stroke-linejoin="round"/>
<path id="Vector_6" d="M28.4785 31.6426L34.0189 36.8309" stroke="#7F5BC2" stroke-width="1.78987" stroke-linecap="round" stroke-linejoin="round"/>
</g>
</svg>
