<svg width="54" height="55" viewBox="0 0 54 55" fill="none" xmlns="http://www.w3.org/2000/svg">
<g id="ICONS 56" clip-path="url(#clip0_5274_5324)">
<path id="Vector" d="M19.1191 16.0631L33.7229 9.3844L36.0859 16.0631H19.1191Z" fill="#E3DFF2" stroke="#7F5BC2" stroke-width="2.02417" stroke-linecap="round" stroke-linejoin="round"/>
<path id="Vector_2" d="M19.1191 16.0631L33.7229 9.3844L36.0859 16.0631H19.1191Z" fill="#E3DFF2" stroke="#7F5BC2" stroke-width="2.02417" stroke-linecap="round" stroke-linejoin="round"/>
<path id="Vector_3" d="M36.0874 16.0631H19.1206C15.5418 16.0631 12.6406 18.9643 12.6406 22.5431V34.259C12.6406 37.8378 15.5418 40.739 19.1206 40.739H36.0874C39.6662 40.739 42.5674 37.8378 42.5674 34.259V22.5431C42.5674 18.9643 39.6662 16.0631 36.0874 16.0631Z" fill="#E3DFF2" stroke="#7F5BC2" stroke-width="2.02417" stroke-linecap="round" stroke-linejoin="round"/>
<path id="Vector_4" d="M12.6406 23.6081H24.5293C27.1731 23.6081 29.3201 25.7552 29.3201 28.399C29.3201 31.0428 27.1731 33.1899 24.5293 33.1899H12.6406V23.606V23.6081Z" fill="#E3DFF2" stroke="#7F5BC2" stroke-width="2.02417" stroke-linecap="round" stroke-linejoin="round"/>
</g>
<defs>
<clipPath id="clip0_5274_5324">
<rect width="54" height="54" fill="white" transform="translate(0 0.833008)"/>
</clipPath>
</defs>
</svg>
