<svg width="54" height="54" viewBox="0 0 54 54" fill="none" xmlns="http://www.w3.org/2000/svg">
<g id="ICONS -60">
<path id="Vector" d="M40.0658 21.3062C40.2278 26.0193 37.9058 30.1989 34.3073 32.6419C33.5254 33.1732 33.0545 34.0524 33.0545 34.9963V42.7377H20.8786V38.8692C20.8786 38.0073 20.1809 37.3096 19.319 37.3096H15.2669C14.459 37.3096 13.8024 36.653 13.8024 35.8452V29.7928H12.2731C11.0981 29.7928 10.4025 28.4796 11.0613 27.5076L13.8607 22.9586C13.8218 22.5698 13.8024 22.1702 13.8024 21.7684C13.8024 14.4028 19.8634 8.45419 27.2722 8.63563C34.1798 8.80627 39.8304 14.3985 40.068 21.3062H40.0658Z" fill="#E3DFF2" stroke="#7F5BC2" stroke-width="1.78987" stroke-linecap="round" stroke-linejoin="round"/>
<g id="odvOB2.tif">
<path id="Vector_2" d="M34.9502 20.723V21.5416C34.9091 21.8311 34.8702 22.1205 34.8227 22.41C34.7536 22.8355 34.449 23.1379 34.0214 23.207C32.6886 23.4252 31.9758 24.6434 32.4424 25.907C32.5979 26.3304 32.4942 26.7192 32.1443 27.0086C31.5525 27.4968 30.9023 27.8834 30.1938 28.175C29.777 28.3456 29.3601 28.2376 29.0771 27.8877C28.1958 26.7969 26.7314 26.8142 25.8803 27.9223C25.5909 28.3024 25.1805 28.4169 24.7334 28.2441C23.9882 27.9568 23.3034 27.568 22.6814 27.0669C22.258 26.7235 22.1608 26.3584 22.3682 25.8573C22.5561 25.3972 22.5885 24.9285 22.4178 24.4598C22.1284 23.6606 21.543 23.2351 20.7093 23.1228C20.2816 23.0644 19.9857 22.7491 19.9187 22.3214C19.787 21.4941 19.7999 20.6712 19.9511 19.846C20.0397 19.3536 20.3334 19.0598 20.8259 18.9972C22.1154 18.8308 22.8801 17.5802 22.4438 16.3555C22.2688 15.8673 22.3811 15.4893 22.7894 15.174C23.3834 14.716 24.0314 14.3553 24.7334 14.0896C25.1589 13.9276 25.5434 14.0248 25.8414 14.3683C26.7098 15.3727 28.0727 15.3748 28.9367 14.3726C29.2391 14.0227 29.6193 13.9276 30.0578 14.094C30.8094 14.3791 31.4963 14.7744 32.1227 15.2798C32.5396 15.6168 32.6411 15.9559 32.4705 16.4613C32.3301 16.876 32.3128 17.2972 32.4554 17.7141C32.7081 18.4572 33.2265 18.9086 33.9998 19.0598C34.4858 19.1548 34.7536 19.4054 34.8357 19.8914C34.8832 20.17 34.9156 20.4487 34.9545 20.7273L34.9502 20.723ZM29.9087 21.1723C29.9174 19.7985 28.7942 18.6537 27.4269 18.6429C26.025 18.6321 24.8781 19.7467 24.8694 21.1291C24.8608 22.5288 25.9754 23.6736 27.3599 23.6822C28.7661 23.6908 29.9001 22.5741 29.9087 21.1723Z" fill="#E3DFF2" stroke="#7F5BC2" stroke-width="1.78987" stroke-linecap="round" stroke-linejoin="round"/>
</g>
</g>
</svg>
