<svg width="54" height="54" viewBox="0 0 54 54" fill="none" xmlns="http://www.w3.org/2000/svg">
<g id="ICONS -57">
<path id="Vector" d="M13.3524 29.5294L11.6698 29.4797C9.49681 29.4106 7.79041 27.5962 7.85737 25.4232C7.87033 24.9804 7.95673 24.5571 8.10361 24.164C8.67817 22.6282 10.1815 21.5568 11.9117 21.6108L13.5922 21.6627L13.3503 29.5294H13.3524Z" fill="#E3DFF2" stroke="#7F5BC2" stroke-width="2.02417" stroke-linecap="round" stroke-linejoin="round"/>
<path id="Vector_2" d="M18.6221 39.1111L18.8381 32.1407" stroke="#7F5BC2" stroke-width="2.02417" stroke-linecap="round" stroke-linejoin="round"/>
<path id="Vector_3" d="M24.4193 31.7845L24.7778 20.1853L24.7951 19.6539L15.6972 19.3753C14.5783 19.3407 13.643 20.2198 13.6085 21.3409L13.5977 21.6649L13.3557 29.5316L13.3428 29.942C13.3082 31.063 14.1873 31.9983 15.3062 32.0329L18.84 32.143L24.402 32.3158L24.4171 31.7866L24.4193 31.7845Z" fill="#E3DFF2" stroke="#7F5BC2" stroke-width="2.02417" stroke-linecap="round" stroke-linejoin="round"/>
<path id="Vector_4" d="M34.0559 41.2192C33.3042 41.1955 32.7124 40.5669 32.7361 39.8153V39.7245C32.7664 38.8735 32.4532 38.0462 31.8678 37.4241L24.418 31.7844L24.7765 20.1852L31.3256 14.729C31.9456 14.1458 32.3106 13.3401 32.3365 12.4869L32.3603 11.7331C32.384 10.9814 33.0104 10.3917 33.7621 10.4155C33.9155 10.422 34.0624 10.45 34.1985 10.4997C34.7298 10.6984 35.0992 11.219 35.0819 11.8173L35.4577 39.9016C35.434 40.6533 34.8076 41.243 34.0559 41.2192Z" fill="#E3DFF2" stroke="#7F5BC2" stroke-width="2.02417" stroke-linecap="round" stroke-linejoin="round"/>
<path id="Vector_5" d="M38.5352 14.148L43.1424 11.4825" stroke="#7F5BC2" stroke-width="2.02417" stroke-linecap="round" stroke-linejoin="round"/>
<path id="Vector_6" d="M43.9189 40.1565L39.1777 37.9296" stroke="#7F5BC2" stroke-width="2.02417" stroke-linecap="round" stroke-linejoin="round"/>
<path id="Vector_7" d="M40.127 26.2117L42.2749 26.0604" stroke="#7F5BC2" stroke-width="2.02417" stroke-linecap="round" stroke-linejoin="round"/>
</g>
</svg>
