<svg width="54" height="55" viewBox="0 0 54 55" fill="none" xmlns="http://www.w3.org/2000/svg">
<g id="ICONS 59">
<path id="Vector" d="M37.7788 12.7518H20.069C16.8612 12.7518 14.2607 15.3523 14.2607 18.5601V36.2699C14.2607 39.4777 16.8612 42.0781 20.069 42.0781H37.7788C40.9866 42.0781 43.5871 39.4777 43.5871 36.2699V18.5601C43.5871 15.3523 40.9866 12.7518 37.7788 12.7518Z" fill="#E3DFF2" stroke="#7F5BC2" stroke-width="1.78987" stroke-linecap="round" stroke-linejoin="round"/>
<path id="Vector_2" d="M21.0225 34.2963V32.7102" stroke="#7F5BC2" stroke-width="1.78987" stroke-linecap="round" stroke-linejoin="round"/>
<path id="Vector_3" d="M28.8633 34.2957V25.3577" stroke="#7F5BC2" stroke-width="1.78987" stroke-linecap="round" stroke-linejoin="round"/>
<path id="Vector_4" d="M36.708 34.2956V19.1799" stroke="#7F5BC2" stroke-width="1.78987" stroke-linecap="round" stroke-linejoin="round"/>
<path id="Vector_5" d="M12.5102 21.8023C14.8889 21.8023 16.8172 19.874 16.8172 17.4953C16.8172 15.1166 14.8889 13.1882 12.5102 13.1882C10.1315 13.1882 8.20312 15.1166 8.20312 17.4953C8.20312 19.874 10.1315 21.8023 12.5102 21.8023Z" fill="#E3DFF2" stroke="#7F5BC2" stroke-width="1.78987" stroke-linecap="round" stroke-linejoin="round"/>
<path id="Vector_6" d="M13.5638 22.9211H11.4578C10.1921 22.9211 9.16602 23.9472 9.16602 25.2129V31.0255C9.16602 32.2912 10.1921 33.3172 11.4578 33.3172H13.5638C14.8295 33.3172 15.8555 32.2912 15.8555 31.0255V25.2129C15.8555 23.9472 14.8295 22.9211 13.5638 22.9211Z" fill="#E3DFF2" stroke="#7F5BC2" stroke-width="1.78987" stroke-linecap="round" stroke-linejoin="round"/>
<path id="Vector_7" d="M14.291 34.043V44.3656" stroke="#7F5BC2" stroke-width="1.78987" stroke-linecap="round" stroke-linejoin="round"/>
<path id="Vector_8" d="M11.1699 34.043V44.3656" stroke="#7F5BC2" stroke-width="1.78987" stroke-linecap="round" stroke-linejoin="round"/>
<path id="Vector_9" d="M9.16472 24.5973L5.72168 32.8398" stroke="#7F5BC2" stroke-width="1.78987" stroke-linecap="round" stroke-linejoin="round"/>
<g id="Vector_10">
<path d="M15.8545 24.2431L18.2132 28.3968L22.9458 22.6339" fill="#E3DFF2"/>
<path d="M15.8545 24.2431L18.2132 28.3968L22.9458 22.6339" stroke="#7F5BC2" stroke-width="1.78987" stroke-linecap="round" stroke-linejoin="round"/>
</g>
</g>
</svg>
