<svg width="54" height="55" viewBox="0 0 54 55" fill="none" xmlns="http://www.w3.org/2000/svg">
<g id="ICONS 63">
<path id="Vector" d="M20.5429 23.5735L12.5596 43.668L18.0719 41.5339L20.8086 45.9727L28.4809 26.6601L20.5429 23.5735Z" fill="#E3DFF2" stroke="#7F5BC2" stroke-width="1.87014" stroke-linecap="round" stroke-linejoin="round"/>
<path id="Vector_2" d="M33.4556 23.5735L41.4389 43.668L35.8856 41.2401L33.1899 45.9727L25.5176 26.6601L33.4556 23.5735Z" fill="#E3DFF2" stroke="#7F5BC2" stroke-width="1.87014" stroke-linecap="round" stroke-linejoin="round"/>
<path id="Vector_3" d="M26.9987 36.73C34.7063 36.73 40.9545 30.4818 40.9545 22.7742C40.9545 15.0667 34.7063 8.81848 26.9987 8.81848C19.2912 8.81848 13.043 15.0667 13.043 22.7742C13.043 30.4818 19.2912 36.73 26.9987 36.73Z" fill="#E3DFF2" stroke="#7F5BC2" stroke-width="1.71176" stroke-linecap="round" stroke-linejoin="round"/>
<g id="Vector_4">
<path d="M21.8105 23.2646L25.6337 27.0878L33.8353 18.8862" fill="#E3DFF2"/>
<path d="M21.8105 23.2646L25.6337 27.0878L33.8353 18.8862" stroke="#7F5BC2" stroke-width="1.71176" stroke-linecap="round" stroke-linejoin="round"/>
</g>
</g>
</svg>
