<svg width="36" height="36" viewBox="0 0 36 36" fill="none" xmlns="http://www.w3.org/2000/svg">
<g id="ICONS -62">
<path id="Vector" d="M25.6895 28.3191V7.681C25.6895 6.27732 24.5515 5.1394 23.1479 5.1394L12.8562 5.1394C11.4525 5.1394 10.3146 6.27732 10.3146 7.681L10.3146 28.3191C10.3146 29.7228 11.4525 30.8607 12.8562 30.8607H23.1479C24.5515 30.8607 25.6895 29.7228 25.6895 28.3191Z" fill="#E3DFF2" stroke="#7F5BC2" stroke-width="1.34945" stroke-linecap="round" stroke-linejoin="round"/>
<path id="Vector_2" d="M18.0013 7.93798C18.3737 7.93798 18.6755 7.63614 18.6755 7.26379C18.6755 6.89145 18.3737 6.5896 18.0013 6.5896C17.629 6.5896 17.3271 6.89145 17.3271 7.26379C17.3271 7.63614 17.629 7.93798 18.0013 7.93798Z" fill="#7F5BC2"/>
<path id="Vector_3" d="M30.3011 26.2213C30.2665 26.1925 30.2319 26.1651 30.1974 26.1363C30.0634 25.9965 29.9308 25.8568 29.7969 25.7185C29.8257 25.7243 29.8646 25.7214 29.8819 25.7401C30.0173 25.8698 30.1498 26.0023 30.2795 26.1377C30.2968 26.1564 30.2939 26.1939 30.2996 26.2227L30.3011 26.2213Z" fill="#010101"/>
</g>
</svg>
